<svg width="39" height="30" viewBox="0 0 39 30" fill="none" xmlns="http://www.w3.org/2000/svg">
<path d="M6.8575 12.8788L5.61112 14.1825H12.4036C12.7449 14.1825 12.7416 14.28 12.5743 14.455C12.4036 14.6325 12.1193 14.9425 11.947 15.1225C11.8593 15.2138 11.6967 15.3813 12.2249 15.3813H15.0036L15.8243 14.5188C16.3345 13.9863 15.8697 12.8788 14.0449 12.8788H6.8575ZM18.564 12.8788L16.1671 15.3813H24.9259L27.3195 12.8788H23.7412L22.3714 14.3113H20.7708L22.1455 12.8788H18.5656H18.564ZM28.4846 12.8788L26.0894 15.3813H29.8821L32.2741 12.8788H28.4863H28.4846ZM7.6115 14.5038L5.109 17.1213H11.2092C13.2242 17.1213 14.3488 16.0663 14.6949 15.7013H10.5349C10.0051 15.7013 10.1676 15.535 10.2554 15.4425C10.4292 15.2638 10.7153 14.9575 10.8859 14.78C11.0549 14.605 11.0597 14.505 10.7153 14.505H7.6115V14.5038ZM0 15.7025V16.005H5.52175L5.80775 15.7025H0ZM15.8632 15.7025L14.5047 17.1225H18.0846L19.4431 15.7025H15.8632ZM21.0389 15.7025L19.6804 17.1225H23.2603L24.6187 15.7025H21.0389ZM25.7806 15.7025C25.7806 15.7025 25.5222 15.9775 25.3939 16.11C24.9454 16.5775 25.3403 17.1225 26.8076 17.1225H32.5569L33.9121 15.7025H25.7806ZM34.5686 15.7025L34.281 16.005H39V15.7025H34.5686ZM0 16.2625V16.5625H4.9855L5.27475 16.2625H0ZM34.0324 16.2625L33.748 16.5625H39V16.2625H34.0324ZM0 16.8213V17.1213H4.4525L4.7385 16.8213H0ZM33.4994 16.8213L33.2118 17.1213H39V16.8213H33.4994Z" fill="black"/>
</svg>
