<svg width="22" height="23" viewBox="0 0 22 23" fill="none" xmlns="http://www.w3.org/2000/svg">
<path d="M1.83333 2.875L2.07616 2.95962C3.2862 3.38131 3.89122 3.59214 4.23727 4.0941C4.58333 4.59604 4.58333 5.26277 4.58333 6.59625V9.10417C4.58333 11.8147 4.58333 13.17 5.38878 14.0121C6.19424 14.8542 7.4906 14.8542 10.0833 14.8542H17.4167" stroke="#1C274C" stroke-width="1.5" stroke-linecap="round"/>
<path opacity="0.5" d="M6.875 17.25C7.63439 17.25 8.25 17.8936 8.25 18.6875C8.25 19.4814 7.63439 20.125 6.875 20.125C6.11561 20.125 5.5 19.4814 5.5 18.6875C5.5 17.8936 6.11561 17.25 6.875 17.25Z" stroke="#1C274C" stroke-width="1.5"/>
<path opacity="0.5" d="M15.125 17.2501C15.8844 17.2501 16.5 17.8936 16.5 18.6876C16.5 19.4815 15.8844 20.1251 15.125 20.1251C14.3656 20.1251 13.75 19.4815 13.75 18.6876C13.75 17.8936 14.3656 17.2501 15.125 17.2501Z" stroke="#1C274C" stroke-width="1.5"/>
<path d="M4.58333 5.75H15.0795C16.9633 5.75 17.9051 5.75 18.3127 6.39617C18.7203 7.04234 18.3492 7.9474 17.6071 9.75756L17.2143 10.7159C16.8679 11.561 16.6946 11.9835 16.3502 12.221C16.0058 12.4583 15.5661 12.4583 14.6866 12.4583H4.58333" stroke="#1C274C" stroke-width="1.5"/>
</svg>
