<svg width="15" height="15" viewBox="0 0 15 15" fill="none" xmlns="http://www.w3.org/2000/svg">
<g clip-path="url(#clip0_3_9)">
<path d="M5.23833 0C2.3499 0 0 2.3499 0 5.23833C0 8.12676 2.3499 10.4767 5.23833 10.4767C8.12676 10.4767 10.4767 8.12676 10.4767 5.23833C10.4767 2.3499 8.12676 0 5.23833 0ZM5.23833 8.57181C3.40024 8.57181 1.90486 7.07643 1.90486 5.23838C1.90486 4.8439 2.22467 4.5241 2.61914 4.5241C3.01362 4.5241 3.33343 4.8439 3.33343 5.23838C3.33343 6.28871 4.18795 7.14324 5.23833 7.14324C5.63281 7.14324 5.95262 7.46305 5.95262 7.85752C5.95262 8.252 5.63281 8.57181 5.23833 8.57181Z" fill="black"/>
<path d="M14.7908 13.7807L10.4282 9.41809C10.1283 9.78961 9.78962 10.1284 9.41805 10.4282L13.7806 14.7908C13.9201 14.9303 14.1029 15 14.2857 15C14.4685 15 14.6513 14.9303 14.7908 14.7908C15.0698 14.5119 15.0698 14.0596 14.7908 13.7807Z" fill="black"/>
</g>
<defs>
<clipPath id="clip0_3_9">
<rect width="15" height="15" fill="white"/>
</clipPath>
</defs>
</svg>
