<svg width="12" height="14" viewBox="0 0 12 14" fill="none" xmlns="http://www.w3.org/2000/svg">
<path d="M6 13C8.76142 13 11 10.3137 11 7C11 3.68629 8.76142 1 6 1C3.23858 1 1 3.68629 1 7C1 10.3137 3.23858 13 6 13Z" stroke="black" stroke-linecap="round" stroke-linejoin="round"/>
<path d="M4.90826 2.25583L7.02264 5.13895" stroke="black" stroke-linecap="round" stroke-linejoin="round"/>
<path d="M3.3806 5.13895H8.38683" stroke="black" stroke-linecap="round" stroke-linejoin="round"/>
<path d="M7.11335 10.907C7.01011 8.39357 7.02265 5.13895 7.02265 5.13895" stroke="black" stroke-linecap="round" stroke-linejoin="round"/>
<path d="M4.71396 5.13895C4.71396 6.01174 4.68631 7.35197 4.68631 7.65593C4.68185 7.83132 4.71001 8.0057 4.76875 8.1664C4.82748 8.32709 4.91532 8.47006 5.02586 8.58492C5.13641 8.69978 5.26689 8.78364 5.40783 8.83041C5.54877 8.87718 5.69662 8.88568 5.84063 8.85529C6.24995 8.79415 6.65397 8.68986 7.04803 8.54363" stroke="black" stroke-linecap="round" stroke-linejoin="round"/>
</svg>
