<svg width="32" height="21" viewBox="0 0 32 21" fill="none" xmlns="http://www.w3.org/2000/svg">
<path d="M16 7.21875V9.81042H15.9199C15.4399 9.43308 14.8454 9.30286 14.1504 9.30286C12.7304 9.30286 11.6602 9.96872 11.2852 10.8435C10.3852 8.80454 6.41445 8.86595 5.18945 10.3629V9.53229H2.44922V8.63251H5.44922V7.2226H0V13.5505H2.44922V10.8909H4.89453C4.81953 11.0865 4.7793 11.2966 4.7793 11.5164C4.7793 14.0253 9.90906 14.6522 11.2891 12.329H9.18945C8.45445 13.0463 6.90039 12.6344 6.90039 11.8279H11.1758C11.3608 12.8746 12.5447 13.7812 14.1797 13.7812C14.8847 13.7812 15.5308 13.5446 15.9258 13.1429H15.9492V13.5505H26.5605L27.6641 12.6931L28.7793 13.5505H32L29.3008 11.4741L31.9648 9.41821H28.8457L27.7598 10.2706L26.6348 9.41949H20.6992V8.86963H23.5059V7.21875H16ZM18.3047 7.52509H23.0547V8.56073H20.25V9.72455H23.0254V10.6884H20.2207V12.2239H23.0254V13.2391H18.3047V7.52509ZM23.5352 9.52588L26.0703 11.4818L23.5352 13.4377V11.8727H20.7305V11.0358H23.5352V9.52588ZM24.4492 9.72455H26.4355L27.7656 10.7294L29.0449 9.72455H30.9707L28.6992 11.4741L31 13.2391H28.9746L27.6602 12.2265L26.3555 13.2391H24.4492L26.7305 11.4818L24.4492 9.72455ZM8.15234 10.2372C8.66547 10.2403 9.16906 10.4657 9.28906 10.905H6.96484C7.11734 10.4535 7.63922 10.2342 8.15234 10.2372ZM14.6348 10.4282C16.2648 10.4282 16.3598 12.5841 14.6348 12.5841C12.9048 12.5841 12.9348 10.4282 14.6348 10.4282Z" fill="black"/>
</svg>
