<svg width="15" height="15" viewBox="0 0 15 15" fill="none" xmlns="http://www.w3.org/2000/svg">
<g clip-path="url(#clip0_4_225)">
<path d="M7.49601 14.996C11.6359 14.996 14.992 11.6399 14.992 7.50001C14.992 3.36007 11.6359 0.0039978 7.49601 0.0039978C3.35608 0.0039978 0 3.36007 0 7.50001C0 11.6399 3.35608 14.996 7.49601 14.996Z" fill="white"/>
<path d="M7.49601 14.996C6.10267 14.9982 4.73692 14.6105 3.55269 13.8764L8.57423 0.0809631C9.46295 0.208752 10.3219 0.496278 11.1082 0.929746C14.7372 2.92065 16.0659 7.47605 14.075 11.1057C12.7579 13.5076 10.2355 14.9989 7.49601 14.996Z" fill="#6E7BF2"/>
<path d="M4.95329 7.46733C4.95547 7.34099 4.9424 7.21466 4.91481 7.09195H3.18965V7.77373H4.20253C4.16405 8.01552 4.02827 8.23044 3.82715 8.36984L3.82352 8.39235L4.3688 8.81493L4.40655 8.81856C4.75289 8.49836 4.95329 8.02714 4.95329 7.46733Z" fill="#4285F4"/>
<path d="M3.18965 9.26363C3.68556 9.26363 4.10233 9.10026 4.40656 8.81855L3.82715 8.36911C3.63909 8.49544 3.41619 8.55934 3.19038 8.5528C2.71407 8.5499 2.29295 8.24204 2.14483 7.78897L2.12305 7.79115L1.55598 8.2297L1.54872 8.25003C1.85948 8.87228 2.4948 9.26436 3.18965 9.26363Z" fill="#34A853"/>
<path d="M2.1441 7.78971C2.10416 7.67281 2.08311 7.5501 2.08311 7.42594C2.08383 7.30251 2.10416 7.1798 2.14265 7.06218L2.14192 7.03822L1.56759 6.59241L1.54872 6.60112C1.28733 7.12026 1.28733 7.73162 1.54872 8.25076L2.1441 7.78971Z" fill="#FBBC05"/>
<path d="M3.18966 6.29981C3.45322 6.29546 3.70735 6.39348 3.89976 6.57354L4.41818 6.06747C4.08563 5.75526 3.6449 5.58463 3.18893 5.58971C2.49407 5.58971 1.85876 5.98106 1.54727 6.60259L2.1412 7.06364C2.29077 6.61057 2.71262 6.30272 3.18966 6.29981Z" fill="#EB4335"/>
<path d="M7.84525 7.63069V8.96594H7.41832V5.66738H8.55027C8.82255 5.66157 9.08684 5.76395 9.28361 5.95273C9.66915 6.30778 9.69384 6.90897 9.33806 7.29452C9.32064 7.31339 9.30249 7.33154 9.28361 7.34897C9.08612 7.5363 8.82255 7.63722 8.55027 7.62996L7.84525 7.63069ZM7.84525 6.07326V7.22481H8.56044C8.71872 7.22989 8.87192 7.16818 8.98229 7.05418C9.20519 6.83999 9.21173 6.48639 8.99753 6.26349C8.99608 6.26204 8.99463 6.26058 8.99318 6.25913C8.98955 6.2555 8.98592 6.25114 8.98229 6.24824C8.87265 6.13207 8.71945 6.0689 8.56044 6.07326H7.84525ZM10.5724 6.63524C10.8882 6.63524 11.1373 6.71874 11.3195 6.88646C11.5018 7.05346 11.5933 7.2829 11.5933 7.57478V8.96594H11.1852V8.65228H11.167C10.9906 8.91003 10.7554 9.03928 10.4613 9.03928C10.2319 9.04654 10.0075 8.96812 9.83325 8.81782C9.66988 8.68132 9.57694 8.47802 9.58057 8.26528C9.57331 8.04746 9.67278 7.83907 9.84704 7.70838C10.0249 7.57042 10.2624 7.50145 10.5593 7.50145C10.7764 7.49346 10.9921 7.54065 11.1852 7.6394V7.54211C11.1859 7.39689 11.1213 7.25894 11.0088 7.16745C10.8955 7.06653 10.7488 7.01135 10.5971 7.01352C10.3691 7.00844 10.1549 7.12171 10.0315 7.31267L9.65609 7.07742C9.86084 6.78263 10.1665 6.63524 10.5724 6.63524ZM10.0198 8.27472C10.0191 8.38436 10.0721 8.48746 10.1607 8.55135C10.2551 8.62541 10.3727 8.66389 10.4925 8.66172C10.6726 8.66172 10.8447 8.59056 10.9725 8.4635C11.1068 8.3466 11.1845 8.1767 11.1845 7.99808C11.0509 7.8928 10.8657 7.8398 10.6276 7.8398C10.4736 7.83399 10.3212 7.87755 10.1941 7.96396C10.0874 8.03221 10.022 8.14838 10.0198 8.27472ZM13.9363 6.7093L12.5117 9.96067H12.071L12.5996 8.8229L11.6622 6.70857H12.1262L12.8036 8.3299H12.8131L13.4716 6.70857L13.9363 6.7093Z" fill="white"/>
</g>
<defs>
<clipPath id="clip0_4_225">
<rect width="15" height="15" fill="white"/>
</clipPath>
</defs>
</svg>
