<svg width="52" height="8" viewBox="0 0 52 8" fill="none" xmlns="http://www.w3.org/2000/svg">
<g clip-path="url(#clip0_4_156)">
<path fill-rule="evenodd" clip-rule="evenodd" d="M0.0158825 0.0153872C0.721075 0.0153872 1.42627 0.0123102 2.13146 0.0184641C2.31888 0.021541 2.50629 0.0153871 2.69371 0.0246179C3.40208 0.0246179 4.11045 0.021541 4.82199 0.0246179C4.85058 0.0184641 4.86964 0.0400025 4.8887 0.0584641C5.17141 0.33231 5.45412 0.603079 5.73684 0.876926C5.76542 0.907695 5.8099 0.935387 5.80354 0.981541C5.80354 2.96513 5.80354 4.94769 5.80354 6.92923C5.79719 6.98462 5.8226 7.05231 5.77495 7.09231C5.48271 7.37539 5.19365 7.66154 4.9014 7.94462C4.88235 7.96 4.86329 7.98462 4.83787 7.98462C4.0628 7.99077 3.2909 7.99385 2.51582 7.99077C2.24899 7.98462 1.97899 7.99077 1.71216 7.99077C1.14673 7.98462 0.581307 7.98462 0.019059 7.98154C0.511423 7.97846 1.00696 7.98154 1.5025 7.98154C1.6391 7.97846 1.77569 7.98462 1.91228 7.97539C1.91228 7.47693 1.91228 6.97846 1.91228 6.47693C1.91228 6.36923 1.91545 6.25846 1.9091 6.14769C1.27803 6.14564 0.646956 6.14564 0.0158825 6.14769C0.0158825 4.10462 0.0158825 2.05846 0.0158825 0.0153872ZM1.91863 1.85846C1.91545 2.60308 1.91863 3.34462 1.91545 4.08923C1.91863 4.77539 1.91545 5.46154 1.91863 6.14462C2.29982 6.16 2.68418 6.14154 3.06536 6.15385C3.3449 6.15385 3.62126 6.14769 3.90079 6.15077C3.90079 4.72308 3.90397 3.29231 3.90079 1.86462C3.58949 1.86462 3.27819 1.86769 2.96689 1.86154C2.61747 1.86154 2.26805 1.86154 1.91863 1.85846Z" fill="#231F20"/>
<path d="M8.15101 0H11.8517C11.8612 0.193846 11.8485 0.384615 11.8517 0.578462C11.8549 1 11.8453 1.42154 11.8453 1.84615C11.5499 1.84615 11.2545 1.84923 10.9559 1.84308C10.6351 1.84 10.3142 1.84615 9.99023 1.83692C9.63128 1.83692 9.27233 1.84 8.91338 1.84308C8.91126 2.25949 8.91126 2.67487 8.91338 3.08923C9.60587 3.09231 10.2984 3.08923 10.9877 3.09231C10.9898 3.70564 10.9898 4.31897 10.9877 4.93231C10.2984 4.93538 9.60587 4.93231 8.91338 4.93231C8.91338 5.33231 8.9102 5.72923 8.91338 6.12615C9.2395 6.12615 9.56669 6.12615 9.89493 6.12615C10.2285 6.13539 10.5588 6.12923 10.8924 6.13231C11.2132 6.13846 11.534 6.13231 11.8549 6.13538C11.858 6.32923 11.8485 6.52 11.8517 6.71385C11.8549 7.13231 11.8453 7.55385 11.8453 7.97539C11.6039 7.98154 11.3625 7.96923 11.1179 7.97231C10.867 7.97231 10.6128 7.97538 10.3619 7.96923C9.57834 7.96923 8.79373 7.96923 8.00806 7.96923C7.9763 7.97231 7.94771 7.95692 7.92547 7.93231C7.63641 7.65231 7.34734 7.36923 7.0551 7.08923C7.03287 7.06769 7.01063 7.04308 7.01381 7.00923C7.01381 4.99487 7.01381 2.98051 7.01381 0.966154C7.00745 0.92 7.04875 0.889231 7.07734 0.861538C7.33781 0.615385 7.59194 0.36 7.84924 0.110769C7.88418 0.0769231 7.91912 0.0369231 7.96359 0.0123077C8.02712 0.00307692 8.09065 0.00923077 8.15101 0ZM36.2602 0H38.7157C39.1318 0.00923077 39.548 0 39.9609 0.00923077C39.9546 0.381538 39.9641 0.753846 39.9546 1.12308C39.9546 1.36308 39.9577 1.60308 39.9546 1.84615C39.3955 1.84923 38.8364 1.84 38.2773 1.84308C37.858 1.83077 37.4387 1.84308 37.0194 1.84308C37.0194 2.25949 37.0194 2.67487 37.0194 3.08923C37.7119 3.09231 38.4044 3.08923 39.0969 3.09231C39.099 3.70564 39.099 4.31897 39.0969 4.93231C38.4044 4.93538 37.7119 4.93231 37.0194 4.93231C37.0194 5.33231 37.0163 5.72923 37.0226 6.12615C37.4292 6.12923 37.8358 6.12308 38.2424 6.13231C38.5569 6.13231 38.8682 6.12615 39.1795 6.13538C39.44 6.13538 39.7004 6.13231 39.9641 6.13538C39.9514 6.49846 39.9673 6.86461 39.9546 7.22769C39.9546 7.47692 39.9577 7.72615 39.9546 7.97539C39.6051 7.97846 39.2557 7.96923 38.9031 7.97231C37.9756 7.96615 37.0448 7.96923 36.1173 7.96923C36.0823 7.97231 36.0538 7.95692 36.0347 7.93231C35.7583 7.66462 35.482 7.39692 35.2024 7.12923C35.1675 7.09231 35.1103 7.05538 35.1199 6.99385C35.1199 5.06462 35.1199 3.13231 35.1199 1.20308C35.123 1.11077 35.1103 1.01846 35.1262 0.926154C35.1834 0.855385 35.2596 0.796923 35.3232 0.729231C35.5116 0.542564 35.7012 0.356923 35.8918 0.172308C35.9521 0.12 36.0029 0.0523077 36.0728 0.0123077C36.1332 0.00307692 36.1967 0.00923077 36.2602 0ZM42.1813 0H45.7136C45.7136 0.612308 45.7136 1.22462 45.7136 1.83692C44.856 1.84 43.9951 1.83692 43.1375 1.84C43.1343 3.87077 43.1375 5.90154 43.1375 7.93231C42.5021 7.93538 41.87 7.93538 41.2379 7.93231C41.2347 5.60923 41.2379 3.28923 41.2347 0.966154C41.2283 0.901538 41.2919 0.864615 41.33 0.821539C41.6159 0.550769 41.8954 0.270769 42.1813 0ZM46.6729 0H48.5693C48.5693 1.02564 48.5693 2.05128 48.5693 3.07692C48.563 3.12615 48.6011 3.16615 48.6329 3.20308C48.8679 3.47692 49.0998 3.75385 49.3381 4.02769C49.5541 3.77846 49.7669 3.52615 49.9829 3.27385C50.0242 3.22462 50.075 3.17846 50.1036 3.12C50.1131 3.05231 50.1068 2.98462 50.1068 2.92C50.1068 2.13231 50.1036 1.34769 50.1068 0.563077C50.1036 0.375385 50.1068 0.187692 50.1036 0H50.1131C50.111 0.611282 50.111 1.22154 50.1131 1.83077C50.7421 1.83692 51.371 1.83385 52 1.83385V3.79692C51.4632 4.43077 50.9232 5.06154 50.3831 5.69231C50.3482 5.74154 50.2847 5.78462 50.2878 5.85231C50.2878 6.55692 50.291 7.25846 50.2878 7.96308C49.6557 7.96615 49.0236 7.96615 48.3883 7.96308C48.3851 7.26154 48.3883 6.55692 48.3883 5.85231C48.3915 5.79385 48.3438 5.75692 48.3089 5.71385C47.7879 5.10462 47.2701 4.49538 46.7492 3.88615C46.7174 3.84308 46.6666 3.80615 46.6729 3.74769C46.6729 2.49846 46.6729 1.24923 46.6729 0ZM12.9222 0.0246154C13.5543 0.0246154 14.1864 0.0215385 14.8186 0.0246154C14.8186 2.06154 14.8186 4.09846 14.8186 6.13538C15.6794 6.13538 16.5371 6.13231 17.3979 6.13538C17.3979 6.74872 17.3979 7.36205 17.3979 7.97539C16.2385 7.97846 15.079 7.97538 13.9196 7.97846C13.8942 7.97538 13.8624 7.97846 13.8465 7.95692C13.548 7.66769 13.2494 7.37846 12.9508 7.08923C12.9063 7.05538 12.9254 6.99385 12.9222 6.94769C12.9222 4.64 12.9222 2.33231 12.9222 0.0246154ZM18.3191 0.0246154C18.9523 0.0225641 19.5855 0.0225641 20.2187 0.0246154C20.2187 1.04615 20.2187 2.06769 20.2187 3.08923C20.7841 3.09231 21.3495 3.09231 21.915 3.08923C21.915 2.07385 21.915 1.05846 21.915 0.0461538C22.5471 0.04 23.1824 0.0430769 23.8145 0.0430769C23.8177 1.76308 23.8145 3.48 23.8145 5.19692C23.8145 6.12615 23.8177 7.05231 23.8145 7.97846C23.1824 7.98154 22.5471 7.98154 21.915 7.97846C21.915 6.96308 21.915 5.94769 21.915 4.93231C21.3495 4.93231 20.7841 4.93231 20.2187 4.93231C20.2187 5.94769 20.2219 6.96308 20.2187 7.97846C19.5855 7.98051 18.9523 7.98051 18.3191 7.97846C18.3191 5.32923 18.3191 2.67692 18.3191 0.0246154ZM25.0947 0.0430769C25.7258 0.0410256 26.3568 0.0410256 26.9879 0.0430769C26.9911 1.72615 26.9879 3.40615 26.9879 5.08923C26.9879 6.05231 26.9911 7.01538 26.9879 7.97846C26.3568 7.98051 25.7258 7.98051 25.0947 7.97846C25.0915 6.22462 25.0915 4.47077 25.0915 2.71692C25.0915 1.82462 25.0915 0.935385 25.0947 0.0430769ZM28.3475 0.0430769C28.9785 0.0410256 29.6096 0.0410256 30.2407 0.0430769C30.2439 1.36615 30.2407 2.68923 30.2439 4.01231C30.2439 4.35385 30.2375 4.69538 30.247 5.03692C30.3042 5.12 30.3773 5.19077 30.4376 5.26769C30.6314 5.49231 30.8156 5.71692 31.0126 5.93538C31.254 5.65538 31.4922 5.36923 31.7368 5.08923C31.7559 5.06462 31.7781 5.04 31.775 5.00923C31.7781 3.35385 31.775 1.69846 31.7781 0.0430769C32.4113 0.0430769 33.0435 0.0430769 33.6745 0.0430769C33.6809 1.80923 33.6777 3.57231 33.6777 5.33846C33.6745 5.45846 33.6809 5.57846 33.6745 5.69846C33.6174 5.78154 33.5411 5.85538 33.4808 5.93538C32.9365 6.57333 32.3923 7.21128 31.848 7.84923C31.8131 7.88615 31.7845 7.92923 31.7495 7.96C31.6066 7.97231 31.4605 7.96308 31.3175 7.96615C30.9681 7.96308 30.6219 7.96615 30.2725 7.96308C29.6562 7.24308 29.0431 6.52 28.4269 5.8C28.3919 5.75385 28.3348 5.71385 28.3443 5.65231C28.3475 3.78154 28.3443 1.91385 28.3475 0.0430769Z" fill="#231F20"/>
<path d="M50.1131 0H52V1.83385C51.371 1.83385 50.7421 1.83692 50.1131 1.83077C50.111 1.22154 50.111 0.611282 50.1131 0Z" fill="#EF4136"/>
<path d="M0.0158825 6.14769C0.646956 6.14564 1.27803 6.14564 1.9091 6.14769C1.91545 6.25846 1.91228 6.36923 1.91228 6.47692C1.91228 6.97846 1.91228 7.47692 1.91228 7.97538C1.77569 7.98461 1.6391 7.97846 1.5025 7.98153C1.00696 7.98153 0.511423 7.97846 0.019059 7.98153C0.0158825 7.36923 0.019059 6.75999 0.0158825 6.14769Z" fill="#EF4136"/>
</g>
<defs>
<clipPath id="clip0_4_156">
<rect width="52" height="8" fill="white"/>
</clipPath>
</defs>
</svg>
