<svg width="32" height="8" viewBox="0 0 32 8" fill="none" xmlns="http://www.w3.org/2000/svg">
<path d="M31.8906 2.35946C31.599 1.69696 30.8074 1.22138 29.8804 1.22138H29.8596C29.2554 1.22138 28.7112 1.42283 28.3232 1.74473C28.1248 1.57923 27.8863 1.44753 27.6223 1.35758C27.3582 1.26763 27.074 1.2213 26.7869 1.22138H26.7687C26.2375 1.22138 25.7505 1.37714 25.3782 1.63258V1.50382C25.3651 1.37299 25.2323 1.27122 25.0657 1.27122H23.6387C23.4642 1.27122 23.3236 1.38337 23.3236 1.52251V7.69887C23.3236 7.83801 23.4642 7.95016 23.6387 7.95016H25.0657C25.1414 7.95019 25.2145 7.92832 25.2715 7.88859C25.3285 7.84887 25.3655 7.794 25.3755 7.73417V3.30024C25.3755 3.28363 25.3755 3.27117 25.3782 3.25663C25.4016 3.05933 25.5839 2.89527 25.8703 2.87658H26.1333C26.2531 2.88488 26.3546 2.91811 26.4328 2.97003C26.5577 3.04895 26.6254 3.1694 26.6254 3.30232L26.6307 7.7134C26.6307 7.85255 26.7713 7.96677 26.9457 7.96677H28.3727C28.4534 7.96683 28.5309 7.942 28.5892 7.89749C28.6474 7.85297 28.6818 7.79222 28.6852 7.72794V3.29816C28.6852 3.15279 28.7685 3.01987 28.9169 2.94303C28.9898 2.90565 29.0784 2.88073 29.1799 2.87242H29.4429C29.7528 2.89319 29.9377 3.0801 29.9377 3.29816L29.9429 7.7051C29.9429 7.84424 30.0835 7.95639 30.258 7.95639H31.6849C31.8516 7.95639 31.9896 7.85255 32 7.72171V2.88904C31.9922 2.61698 31.9479 2.4903 31.8906 2.35946ZM22.2352 1.28784H21.4201V0.228679C21.42 0.194824 21.4105 0.161416 21.3922 0.130848C21.374 0.100281 21.3475 0.0733112 21.3146 0.0518733C21.2818 0.0304355 21.2434 0.0150604 21.2022 0.00685035C21.161 -0.00135966 21.1181 -0.0022012 21.0764 0.00438605C20.1728 0.20168 20.3525 1.20061 18.7016 1.28576H18.5428C18.5193 1.28576 18.4959 1.28784 18.4725 1.29199C18.3345 1.31899 18.2277 1.41868 18.2277 1.53913V2.67721C18.2277 2.81635 18.3683 2.9285 18.5428 2.9285H19.4021L19.3995 7.75079C19.3995 7.88785 19.5401 8 19.7119 8H21.1233C21.2952 8 21.4358 7.88785 21.4358 7.75079V2.9285H22.2352C22.407 2.9285 22.5503 2.81427 22.5503 2.67721V1.53913C22.5503 1.39998 22.4096 1.28784 22.2352 1.28784Z" fill="black"/>
<path d="M17.1054 1.28784H15.6784C15.5065 1.28784 15.3633 1.39999 15.3633 1.53913V3.89213C15.3607 4.0375 15.2123 4.1538 15.03 4.1538H14.4337C14.2488 4.1538 14.0978 4.03543 14.0978 3.88798L14.0926 1.53913C14.0926 1.39999 13.952 1.28784 13.7775 1.28784H12.3506C12.1761 1.28784 12.0355 1.39999 12.0355 1.53913V4.11642C12.0355 5.09459 12.9104 5.79446 14.1395 5.79446C14.1395 5.79446 15.0613 5.79446 15.0899 5.79862C15.2566 5.81315 15.3842 5.9253 15.3842 6.06237C15.3842 6.19736 15.2592 6.3095 15.0925 6.32612C15.0847 6.32612 15.0769 6.3282 15.0691 6.33027L12.9833 6.3365C12.8089 6.3365 12.6682 6.44865 12.6682 6.58779V7.72379C12.6682 7.86294 12.8089 7.97509 12.9833 7.97509H15.3139C16.5429 7.97509 17.4179 7.27729 17.4179 6.29912V1.53913C17.4205 1.39999 17.2798 1.28784 17.1054 1.28784ZM8.99146 1.29407H7.01245C6.83799 1.29407 6.69477 1.39999 6.69477 1.52875V2.59622C6.69477 2.73328 6.8458 2.84751 7.03068 2.84751H8.91594C9.06437 2.8662 9.18154 2.95342 9.19977 3.08841V3.23587C9.18415 3.36463 9.06697 3.45808 8.92375 3.46847H7.99154C6.74945 3.46847 5.86671 4.12681 5.86671 5.0489V6.37181C5.86671 7.28975 6.62706 7.94186 7.85874 7.94186H10.4445C10.908 7.94186 11.2855 7.66149 11.2855 7.31675V3.00119C11.2855 1.95449 10.6085 1.29407 8.99146 1.29407ZM9.218 6.0416V6.2202C9.218 6.23474 9.2154 6.24928 9.21279 6.26174C9.21019 6.2742 9.20498 6.28666 9.19977 6.29912C9.15551 6.39881 9.03051 6.47149 8.88209 6.47149H8.28839C8.10351 6.47149 7.95248 6.35935 7.95248 6.2202V5.24619C7.95248 5.10912 8.10351 4.99698 8.28839 4.99698H8.88209C9.06697 4.99698 9.218 5.10912 9.218 5.24827V6.0416ZM3.4268 1.28577H0.309871C0.13801 1.28577 0 1.39791 0 1.5329V7.71341C0 7.85048 0.127594 7.96263 0.289039 7.9647H1.74205C1.91651 7.9647 2.05712 7.85256 2.05712 7.71341L2.06233 5.98553H3.4268C4.56734 5.98553 5.36415 5.35419 5.36415 4.43832V2.83505C5.36415 1.92126 4.56734 1.28577 3.4268 1.28577ZM3.30181 3.37086V4.07281C3.30181 4.22026 3.15339 4.34071 2.96851 4.34071H2.06494V2.93473H2.96851C3.15339 2.93473 3.30181 3.05311 3.30181 3.20056V3.37086Z" fill="black"/>
</svg>
