<svg width="20" height="9" viewBox="0 0 20 9" fill="none" xmlns="http://www.w3.org/2000/svg">
<path d="M18.9333 0H1.06667C0.477563 0 0 0.342203 0 0.764331V8.23567C0 8.6578 0.477563 9 1.06667 9H18.9333C19.5224 9 20 8.6578 20 8.23567V0.764331C20 0.342203 19.5224 0 18.9333 0Z" fill="black"/>
<path d="M11.5736 4.49999C11.5736 6.39442 9.43033 7.93001 6.78667 7.93001C4.143 7.93001 2 6.39442 2 4.49999C2 2.60573 4.143 1.06998 6.78667 1.06998C9.43033 1.06998 11.5736 2.60573 11.5736 4.49999Z" fill="#D9222A"/>
<path d="M13.2131 1.06998C11.9763 1.06998 10.8493 1.4062 9.99977 1.95787C9.82677 2.0703 9.66522 2.19171 9.51644 2.32085H10.4836C10.6158 2.43606 10.7376 2.55724 10.8484 2.68415H9.15155C9.04989 2.80079 8.95755 2.92197 8.87577 3.04737H11.1241C11.2009 3.16504 11.2687 3.28614 11.3268 3.4105H8.67311C8.61777 3.52881 8.57122 3.64991 8.534 3.77372H11.4658C11.5361 4.0078 11.5736 4.25079 11.5736 4.49999C11.5736 4.88088 11.4868 5.24736 11.3268 5.58956H8.67311C8.73111 5.71401 8.79889 5.83518 8.87566 5.95278H11.1241C11.0421 6.07818 10.95 6.19936 10.8482 6.31608H9.15155C9.26233 6.44275 9.38433 6.56409 9.51644 6.67905H10.4833C10.3348 6.80843 10.1731 6.93001 9.99989 7.04235C10.8494 7.59394 11.9763 7.93001 13.2131 7.93001C15.8568 7.93001 18 6.39442 18 4.49999C18 2.6058 15.8568 1.06998 13.2131 1.06998Z" fill="#EE9F2D"/>
<path d="M17.362 6.41195C17.362 6.3508 17.4311 6.30112 17.5166 6.30112C17.602 6.30112 17.6711 6.3508 17.6711 6.41195C17.6711 6.47309 17.602 6.52277 17.5166 6.52277C17.4311 6.52277 17.362 6.47309 17.362 6.41195ZM17.5166 6.49618C17.5814 6.49618 17.6341 6.45844 17.6341 6.41195C17.6341 6.36537 17.5814 6.32779 17.5166 6.32779C17.4516 6.32779 17.3991 6.36537 17.3991 6.41195C17.3991 6.45844 17.4516 6.49618 17.5166 6.49618ZM17.4957 6.46067H17.464V6.3633H17.5213C17.5333 6.3633 17.5456 6.3633 17.5561 6.36816C17.5671 6.37349 17.5733 6.38288 17.5733 6.3926C17.5733 6.40351 17.5643 6.4137 17.5498 6.41768L17.5748 6.46067H17.5397L17.5189 6.42214H17.4957V6.46067ZM17.4957 6.40542H17.5132C17.5198 6.40542 17.5267 6.40581 17.5326 6.40351C17.5378 6.40112 17.5404 6.39666 17.5404 6.39236C17.5404 6.38862 17.5372 6.38432 17.5328 6.38249C17.5272 6.38002 17.5184 6.38058 17.5126 6.38058H17.4957V6.40542Z" fill="black"/>
<path d="M5.669 4.87556C5.61445 4.87102 5.59045 4.86983 5.553 4.86983C5.25845 4.86983 5.10934 4.9422 5.10934 5.08512C5.10934 5.17325 5.18211 5.2293 5.29567 5.2293C5.50734 5.2293 5.65989 5.08488 5.669 4.87556ZM6.04689 5.50606H5.61634L5.62623 5.3594C5.49489 5.47532 5.31967 5.53042 5.08156 5.53042C4.79989 5.53042 4.60678 5.37278 4.60678 5.14387C4.60678 4.79945 4.94267 4.59849 5.51923 4.59849C5.57811 4.59849 5.65367 4.60231 5.731 4.6094C5.74711 4.56274 5.75134 4.54276 5.75134 4.51768C5.75134 4.42389 5.66078 4.38894 5.418 4.38894C5.16378 4.38687 4.95411 4.43233 4.868 4.45263C4.87345 4.42914 4.94 4.13432 4.94 4.13432C5.199 4.07994 5.36978 4.05948 5.562 4.05948C6.00823 4.05948 6.24456 4.20303 6.24411 4.47437C6.245 4.54706 6.22823 4.63679 6.202 4.7547C6.15689 4.95972 6.06011 5.39897 6.04689 5.50606Z" fill="black"/>
<path d="M4.38933 5.50606H3.86967L4.16733 4.16856L3.50266 5.50606H3.14855L3.10478 4.17621L2.79189 5.50606H2.30544L2.71178 3.76617H3.459L3.50433 4.74006L3.96011 3.76617H4.79122L4.38933 5.50606Z" fill="black"/>
<path d="M13.8553 4.87556C13.801 4.87102 13.7769 4.86983 13.7396 4.86983C13.4451 4.86983 13.296 4.9422 13.296 5.08512C13.296 5.17325 13.3687 5.2293 13.4822 5.2293C13.6939 5.2293 13.8466 5.08488 13.8553 4.87556ZM14.2336 5.50606H13.803L13.8128 5.3594C13.6814 5.47532 13.5061 5.53042 13.2682 5.53042C12.9864 5.53042 12.7936 5.37278 12.7936 5.14387C12.7936 4.79945 13.1292 4.59849 13.7059 4.59849C13.7648 4.59849 13.8402 4.60231 13.9174 4.6094C13.9336 4.56274 13.9378 4.54276 13.9378 4.51768C13.9378 4.42389 13.8473 4.38894 13.6046 4.38894C13.3503 4.38687 13.1409 4.43233 13.0544 4.45263C13.0599 4.42914 13.1267 4.13432 13.1267 4.13432C13.3857 4.07994 13.5563 4.05948 13.7483 4.05948C14.1948 4.05948 14.4311 4.20303 14.4307 4.47437C14.4316 4.54706 14.4148 4.63679 14.3886 4.7547C14.3437 4.95972 14.2467 5.39897 14.2336 5.50606Z" fill="black"/>
<path d="M8.35644 5.48457C8.21422 5.51665 8.10333 5.53043 7.98311 5.53043C7.71744 5.53043 7.57244 5.42103 7.57244 5.2196C7.56866 5.1571 7.61066 4.99261 7.64366 4.84245C7.67366 4.71028 7.869 3.87692 7.869 3.87692H8.38555L8.32522 4.09109H8.63722L8.56678 4.43114H8.25366C8.19366 4.70025 8.10822 5.03544 8.10722 5.07987C8.10722 5.1528 8.16155 5.18465 8.28511 5.18465C8.34433 5.18465 8.39022 5.18035 8.42522 5.17127L8.35644 5.48457Z" fill="black"/>
<path d="M9.94023 5.47309C9.76278 5.51195 9.59156 5.53074 9.41012 5.53042C8.83189 5.53002 8.53045 5.31362 8.53045 4.89921C8.53045 4.41553 8.91389 4.05948 9.43445 4.05948C9.86034 4.05948 10.1323 4.25884 10.1323 4.5715C10.1323 4.67524 10.1137 4.77652 10.0687 4.91951H9.04C9.00523 5.12477 9.18856 5.21028 9.489 5.21028C9.67389 5.21028 9.84067 5.18297 10.0261 5.12118L9.94023 5.47309ZM9.64989 4.63424C9.65278 4.60478 9.70467 4.38169 9.40956 4.38169C9.245 4.38169 9.12734 4.47158 9.07945 4.63424H9.64989Z" fill="black"/>
<path d="M6.35855 4.53838C6.35855 4.71736 6.47967 4.84077 6.75433 4.93344C6.96478 5.0043 6.99733 5.02532 6.99733 5.08957C6.99733 5.17779 6.90455 5.2176 6.69889 5.2176C6.54389 5.2176 6.39967 5.20024 6.23333 5.16179C6.23333 5.16179 6.165 5.47365 6.16189 5.48854C6.28 5.50701 6.38533 5.52413 6.70267 5.53042C7.251 5.53042 7.50422 5.38082 7.50422 5.05749C7.50422 4.86306 7.39822 4.74897 7.13789 4.66322C6.92 4.59156 6.895 4.57556 6.895 4.50948C6.895 4.43297 6.98133 4.39395 7.14933 4.39395C7.25133 4.39395 7.39067 4.40176 7.52267 4.41521L7.59667 4.08703C7.46211 4.07174 7.25811 4.05948 7.13933 4.05948C6.558 4.05948 6.35678 4.27707 6.35855 4.53838Z" fill="black"/>
<path d="M12.4676 4.09666C12.6119 4.09666 12.7464 4.12381 12.9319 4.19069L13.0169 3.81306C12.9408 3.79164 12.6728 3.66592 12.4458 3.66592C12.098 3.66592 11.804 3.78957 11.5972 3.99363C11.2957 3.92205 11.1717 4.06672 11.0197 4.21083L10.8847 4.23336C10.8949 4.18591 10.9041 4.13877 10.901 4.09108H10.4238C10.3586 4.52898 10.243 4.97253 10.1526 5.41099L10.129 5.50605H10.6489C10.7357 5.10207 10.7832 4.84339 10.8121 4.66831L11.0079 4.59029C11.0371 4.51234 11.1287 4.48599 11.3123 4.48917C11.2883 4.58153 11.2754 4.67866 11.2754 4.7793C11.2754 5.2422 11.624 5.53041 12.1834 5.53041C12.3276 5.53041 12.4512 5.5168 12.6427 5.47962L12.7341 5.08296C12.5619 5.14371 12.4206 5.17229 12.2926 5.17229C11.9904 5.17229 11.8077 5.0125 11.8077 4.74841C11.8077 4.36529 12.0796 4.09666 12.4676 4.09666Z" fill="black"/>
<path d="M4.53889 5.40271H4.01911L4.317 4.06536L3.65234 5.40271H3.29811L3.25434 4.07301L2.94145 5.40271H2.455L2.86134 3.66306H3.60856L3.62956 4.74005L4.13367 3.66306H4.94078L4.53889 5.40271Z" fill="white"/>
<path d="M16.8672 3.76617L16.752 4.26888C16.6099 4.13488 16.4572 4.03791 16.2557 4.03791C15.9934 4.03791 15.7548 4.18035 15.5986 4.38998C15.381 4.35766 15.156 4.3028 15.156 4.3028L15.1559 4.30407C15.1734 4.18687 15.1804 4.11538 15.1789 4.09109H14.7016C14.6366 4.52899 14.521 4.97254 14.4307 5.411L14.4069 5.50606H14.9267C14.9969 5.17939 15.0507 4.90813 15.0902 4.69301C15.2678 4.57804 15.3567 4.47772 15.5361 4.48441C15.4567 4.62207 15.4101 4.78066 15.4101 4.94332C15.4101 5.29707 15.6599 5.53043 16.0377 5.53043C16.2281 5.53043 16.3742 5.48337 16.5168 5.3743L16.4924 5.50582H16.984L17.3798 3.76617H16.8672ZM16.2173 5.17907C16.0404 5.17907 15.9511 5.08528 15.9511 4.90017C15.9511 4.62207 16.1183 4.42485 16.3541 4.42485C16.5327 4.42485 16.6293 4.52238 16.6293 4.70208C16.6293 4.98258 16.4594 5.17907 16.2173 5.17907Z" fill="black"/>
<path d="M5.81845 4.77246C5.764 4.76792 5.73989 4.76673 5.70256 4.76673C5.408 4.76673 5.259 4.8391 5.259 4.98202C5.259 5.06999 5.33178 5.1262 5.44511 5.1262C5.657 5.1262 5.80956 4.98178 5.81845 4.77246ZM6.19656 5.40272H5.766L5.77578 5.2563C5.64456 5.37198 5.46911 5.42732 5.23122 5.42732C4.94945 5.42732 4.75645 5.26967 4.75645 5.04077C4.75645 4.69619 5.09222 4.49539 5.66889 4.49539C5.72778 4.49539 5.80334 4.49921 5.88056 4.5063C5.89667 4.45964 5.90089 4.43966 5.90089 4.41442C5.90089 4.32063 5.81045 4.28584 5.56767 4.28584C5.31334 4.28377 5.10378 4.32923 5.01756 4.34929C5.023 4.32588 5.08956 4.03138 5.08956 4.03138C5.34845 3.97676 5.51945 3.9563 5.71145 3.9563C6.15778 3.9563 6.39422 4.09993 6.39378 4.37103C6.39456 4.44404 6.37767 4.53369 6.35156 4.65144C6.30656 4.85638 6.20967 5.29587 6.19656 5.40272Z" fill="white"/>
<path d="M13.1666 3.70987L13.0814 4.08758C12.8961 4.02078 12.7614 3.99355 12.6172 3.99355C12.2292 3.99355 11.9572 4.26218 11.9572 4.6453C11.9572 4.9094 12.1401 5.06911 12.4421 5.06911C12.5701 5.06911 12.7113 5.04061 12.8836 4.97978L12.7923 5.37627C12.6008 5.41369 12.4772 5.42731 12.333 5.42731C11.7737 5.42731 11.425 5.13909 11.425 4.67619C11.425 4.05422 11.9066 3.61951 12.5953 3.61951C12.8222 3.61951 13.0903 3.68846 13.1666 3.70987Z" fill="white"/>
<path d="M14.005 4.77246C13.9506 4.76792 13.9266 4.76673 13.8891 4.76673C13.5947 4.76673 13.4456 4.8391 13.4456 4.98202C13.4456 5.06999 13.5183 5.1262 13.6318 5.1262C13.8434 5.1262 13.9961 4.98178 14.005 4.77246ZM14.3831 5.40272H13.9524L13.9623 5.2563C13.831 5.37198 13.6557 5.42732 13.4178 5.42732C13.1361 5.42732 12.943 5.26967 12.943 5.04077C12.943 4.69619 13.2789 4.49539 13.8553 4.49539C13.9143 4.49539 13.9898 4.49921 14.0671 4.5063C14.0831 4.45964 14.0874 4.43966 14.0874 4.41442C14.0874 4.32063 13.997 4.28584 13.7542 4.28584C13.5 4.28377 13.2903 4.32923 13.2041 4.34929C13.2096 4.32588 13.2762 4.03138 13.2762 4.03138C13.5351 3.97676 13.706 3.9563 13.898 3.9563C14.3444 3.9563 14.5808 4.09993 14.5802 4.37103C14.5811 4.44404 14.5643 4.53369 14.5381 4.65144C14.4932 4.85638 14.3961 5.29587 14.3831 5.40272Z" fill="white"/>
<path d="M8.506 5.38128C8.36367 5.41336 8.25278 5.42729 8.13267 5.42729C7.867 5.42729 7.722 5.3179 7.722 5.11647C7.71834 5.05381 7.76034 4.88948 7.79334 4.73932C7.82323 4.60699 8.01856 3.77371 8.01856 3.77371H8.535L8.47478 3.98796H8.73989L8.66934 4.32785H8.40334C8.34334 4.59712 8.25767 4.93207 8.25678 4.97658C8.25678 5.04975 8.31122 5.08136 8.43467 5.08136C8.49389 5.08136 8.53967 5.07722 8.57478 5.06814L8.506 5.38128Z" fill="white"/>
<path d="M10.0898 5.36999C9.91244 5.40885 9.741 5.42756 9.55967 5.42732C8.98144 5.42692 8.68 5.21052 8.68 4.79611C8.68 4.31227 9.06344 3.9563 9.584 3.9563C10.0099 3.9563 10.2819 4.15558 10.2819 4.4684C10.2819 4.57222 10.2632 4.6735 10.2183 4.81641H9.18967C9.15489 5.02166 9.33822 5.10725 9.63867 5.10725C9.82344 5.10725 9.99033 5.07987 10.1757 5.01792L10.0898 5.36999ZM9.79933 4.5309C9.80244 4.50152 9.85422 4.27835 9.559 4.27835C9.39456 4.27835 9.27689 4.36848 9.229 4.5309H9.79933Z" fill="white"/>
<path d="M6.50811 4.43528C6.50811 4.61426 6.62922 4.73751 6.90389 4.83034C7.11433 4.9012 7.14689 4.9223 7.14689 4.98647C7.14689 5.07469 7.054 5.1145 6.84855 5.1145C6.69344 5.1145 6.54922 5.09714 6.38278 5.05869C6.38278 5.05869 6.31467 5.37055 6.31155 5.38544C6.42944 5.40391 6.53489 5.42079 6.85222 5.42732C7.40067 5.42732 7.65378 5.27772 7.65378 4.95447C7.65378 4.75996 7.54789 4.64587 7.28744 4.56012C7.06967 4.48831 7.04444 4.47254 7.04444 4.40638C7.04444 4.32995 7.131 4.29061 7.29889 4.29061C7.40078 4.29061 7.54011 4.29866 7.67233 4.31211L7.74622 3.98385C7.61178 3.96856 7.40778 3.9563 7.289 3.9563C6.70755 3.9563 6.50644 4.17374 6.50811 4.43528Z" fill="white"/>
<path d="M17.1336 5.40271H16.6419L16.6663 5.27102C16.5238 5.38025 16.3777 5.42731 16.1872 5.42731C15.8094 5.42731 15.5598 5.19395 15.5598 4.84021C15.5598 4.36958 15.947 3.97285 16.4053 3.97285C16.6069 3.97285 16.7594 4.03185 16.9014 4.16576L17.0168 3.66306H17.5293L17.1336 5.40271ZM16.367 5.07579C16.609 5.07579 16.779 4.8793 16.779 4.59896C16.779 4.41927 16.6822 4.32173 16.5037 4.32173C16.268 4.32173 16.1006 4.51887 16.1006 4.79705C16.1006 4.98216 16.1901 5.07579 16.367 5.07579Z" fill="white"/>
<path d="M14.8512 3.98798C14.7861 4.42588 14.6706 4.86943 14.5802 5.30765L14.5564 5.40271H15.0762C15.2621 4.53758 15.3071 4.36863 15.5986 4.38981C15.645 4.21274 15.7314 4.05765 15.7959 3.97938C15.5782 3.9469 15.4567 4.03504 15.2976 4.20247C15.3101 4.1301 15.3331 4.0598 15.3286 3.98798H14.8512Z" fill="white"/>
<path d="M10.5733 3.98798C10.5081 4.42588 10.3926 4.86943 10.3022 5.30765L10.2786 5.40271H10.7986C10.9842 4.53758 11.0291 4.36863 11.3204 4.38981C11.3671 4.21274 11.4536 4.05765 11.5178 3.97938C11.3003 3.9469 11.1787 4.03504 11.0197 4.20247C11.0322 4.1301 11.055 4.0598 11.0507 3.98798H10.5733Z" fill="white"/>
<path d="M17.3618 5.29195C17.3618 5.23056 17.431 5.18112 17.5163 5.18112C17.6018 5.18112 17.6709 5.23056 17.6709 5.29195C17.6709 5.35302 17.6018 5.4027 17.5163 5.4027C17.431 5.4027 17.3618 5.35302 17.3618 5.29195ZM17.5163 5.37611C17.5813 5.37611 17.6338 5.33837 17.6338 5.29195C17.6338 5.24545 17.5813 5.20771 17.5163 5.20771C17.4514 5.20771 17.3988 5.24545 17.3988 5.29195C17.3988 5.33837 17.4514 5.37611 17.5163 5.37611ZM17.4954 5.34036H17.4638V5.24322H17.5212C17.5331 5.24322 17.5454 5.24338 17.5558 5.24808C17.5669 5.25349 17.5732 5.26273 17.5732 5.27244C17.5732 5.28343 17.5642 5.2937 17.5496 5.2976L17.5747 5.34036H17.5394L17.5187 5.30198H17.4954V5.34036ZM17.4954 5.28534H17.5129C17.5194 5.28534 17.5266 5.28566 17.5323 5.28343C17.5376 5.28104 17.5402 5.2765 17.5402 5.2722C17.5402 5.26862 17.5371 5.26432 17.5326 5.26217C17.5271 5.25994 17.5181 5.26058 17.5122 5.26058H17.4954V5.28534Z" fill="white"/>
</svg>
